<svg width="156" height="203" viewBox="0 0 156 203" fill="none" xmlns="http://www.w3.org/2000/svg">
<g opacity="0.892579">
<path d="M126.279 20.3837L128.364 22.9146L126.145 25.25L124.06 22.7191L126.279 20.3837Z" fill="#0FB791"/>
<path d="M141.454 39.8643C141.571 42.1578 138.521 42.3126 138.405 40.019C138.288 37.7254 141.338 37.5707 141.454 39.8643Z" fill="#D8287C"/>
<path d="M145.597 9.80772L145.084 11.75L146.224 13.3324L144.432 13.362L143.444 15.0524L142.844 13.136L141.091 12.5964L142.523 11.374L142.434 9.33968L143.92 10.506L145.597 9.80772Z" fill="#D8287C"/>
<path d="M129.184 6.63907L128.382 10.6655C128.315 11.2055 128.612 11.7116 129.081 11.8564L129.352 11.8426C129.744 11.7921 130.082 11.499 130.224 11.0779L131.012 7.05219C131.093 6.51152 130.782 6.00609 130.313 5.86127C129.804 5.74911 129.318 6.08036 129.184 6.63907Z" fill="#1CB791"/>
<path d="M115.206 4.60516C114.935 4.61892 114.681 4.43252 114.559 4.1628C114.435 3.87778 114.473 3.53864 114.651 3.31494C114.83 3.09125 115.125 2.99967 115.388 3.10892C115.652 3.21818 115.83 3.50045 115.845 3.80626C115.866 4.2191 115.572 4.5866 115.206 4.60516ZM115.051 1.54708C114.224 1.58903 113.507 2.17731 113.238 3.04939C112.97 3.92147 113.197 4.90641 113.813 5.53433C114.429 6.16225 115.306 6.30172 116.047 5.91152C116.788 5.52133 117.248 4.6702 117.2 3.73748C117.136 2.46838 116.176 1.48999 115.051 1.54708Z" fill="#5E3FF2"/>
<path d="M102.665 18.542C102.317 18.9122 102.267 19.5432 102.561 19.9882L104.992 23.1608C105.168 23.4278 105.46 23.5509 105.744 23.5212C105.933 23.4963 106.119 23.4102 106.276 23.2949C106.624 22.9247 106.687 22.2929 106.393 21.848L103.949 18.6761C103.814 18.4376 103.576 18.2964 103.33 18.2629C103.084 18.2447 102.845 18.3488 102.665 18.542Z" fill="#1CB791"/>
<path d="M115.729 20.2748L115.421 21.4402L116.108 22.3864L115.022 22.4109L114.435 23.4218L114.077 22.2748L113.028 21.9448L113.888 21.2114L113.826 20.0034L114.717 20.6941L115.729 20.2748Z" fill="#5BBFF4"/>
<path d="M129.635 47.9453L131.668 47.8422L131.784 50.1357L129.751 50.2389L129.635 47.9453Z" fill="#F493B2"/>
<path d="M129.868 52.5332L131.901 52.43L132.018 54.7236L129.985 54.8268L129.868 52.5332Z" fill="#F493B2"/>
<path d="M131.785 50.1348L133.818 50.0316L133.935 52.3252L131.901 52.4283L131.785 50.1348Z" fill="#F493B2"/>
<path d="M127.718 50.3418L129.751 50.2386L129.868 52.5322L127.835 52.6354L127.718 50.3418Z" fill="#F493B2"/>
</g>
<path fill-rule="evenodd" clip-rule="evenodd" d="M89.418 198.167C74.7502 196.546 61.2574 193.597 48.6075 185.998C29.8545 174.732 3.85409 166.523 0.706132 144.874C-2.52404 122.659 15.2829 101.102 34.6002 89.6667C51.1266 79.8837 70.7693 92.3467 89.9716 92.0317C110.07 91.7019 132.911 74.3333 147.826 87.8089C162.703 101.25 150.775 125.653 149.316 145.649C148.022 163.383 153.293 184.372 139.923 196.094C126.753 207.642 106.828 200.093 89.418 198.167Z" fill="#F1EEFF"/>
<path d="M70.0001 90.998L76.5001 85.998V79.998M70.0001 90.998L87.5708 103.124L99.0001 95.0755M70.0001 90.998V115.498M70.0001 90.998L76.5001 95.484M99.0001 95.0755L105.5 90.498M99.0001 95.0755L70.0001 115.498M99.0001 95.0755V79.998M105.5 90.498L99.0001 85.998V79.998M105.5 90.498V115.498M99.0001 79.998H76.5001M76.5001 79.998V95.484M105.5 115.498H70.0001M105.5 115.498L76.5001 95.484" stroke="#5F43DA" stroke-width="1.5"/>
<path d="M84.5001 79.998L88.0001 76.998L92.0001 79.998" stroke="#5F43DA"/>
<rect x="60" y="52.998" width="54" height="86" rx="1" stroke="#5F43DA" stroke-width="2"/>
<rect x="51.0001" y="35.998" width="71.8182" height="114" rx="9" stroke="#5F43DA" stroke-width="2"/>
<rect x="77.0001" y="42.998" width="19" height="2" rx="1" fill="#733F96"/>
<path d="M80.3581 94.39L79.6381 93.846C79.5954 93.814 79.5741 93.7767 79.5741 93.734C79.5741 93.6807 79.5901 93.638 79.6221 93.606L80.6781 92.438L79.1101 92.102C79.0461 92.0914 79.0087 92.0647 78.9981 92.022C78.9874 91.9794 78.9927 91.9367 79.0141 91.894L79.2861 91.062C79.3074 91.0087 79.3394 90.9767 79.3821 90.966C79.4247 90.9447 79.4727 90.9447 79.5261 90.966L80.9501 91.606L80.8061 90.006C80.7954 89.942 80.8061 89.8994 80.8381 89.878C80.8701 89.846 80.9074 89.83 80.9501 89.83H81.8141C81.8567 89.83 81.8941 89.846 81.9261 89.878C81.9687 89.8994 81.9847 89.942 81.9741 90.006L81.8301 91.622L83.2541 90.966C83.3074 90.9447 83.3554 90.9447 83.3981 90.966C83.4514 90.9767 83.4834 91.0087 83.4941 91.062L83.7821 91.894C83.8034 91.958 83.8034 92.006 83.7821 92.038C83.7607 92.07 83.7234 92.0914 83.6701 92.102L82.0861 92.454L83.1421 93.606C83.1847 93.6487 83.2007 93.6914 83.1901 93.734C83.1901 93.7767 83.1634 93.8194 83.1101 93.862L82.3901 94.374C82.2941 94.4487 82.2194 94.4327 82.1661 94.326L81.3821 92.966L80.5821 94.342C80.5501 94.3847 80.5127 94.4167 80.4701 94.438C80.4381 94.4487 80.4007 94.4327 80.3581 94.39ZM86.9674 94.39L86.2474 93.846C86.2048 93.814 86.1834 93.7767 86.1834 93.734C86.1834 93.6807 86.1994 93.638 86.2314 93.606L87.2874 92.438L85.7194 92.102C85.6554 92.0914 85.6181 92.0647 85.6074 92.022C85.5968 91.9794 85.6021 91.9367 85.6234 91.894L85.8954 91.062C85.9168 91.0087 85.9488 90.9767 85.9914 90.966C86.0341 90.9447 86.0821 90.9447 86.1354 90.966L87.5594 91.606L87.4154 90.006C87.4048 89.942 87.4154 89.8994 87.4474 89.878C87.4794 89.846 87.5168 89.83 87.5594 89.83H88.4234C88.4661 89.83 88.5034 89.846 88.5354 89.878C88.5781 89.8994 88.5941 89.942 88.5834 90.006L88.4394 91.622L89.8634 90.966C89.9168 90.9447 89.9648 90.9447 90.0074 90.966C90.0608 90.9767 90.0928 91.0087 90.1034 91.062L90.3914 91.894C90.4128 91.958 90.4128 92.006 90.3914 92.038C90.3701 92.07 90.3328 92.0914 90.2794 92.102L88.6954 92.454L89.7514 93.606C89.7941 93.6487 89.8101 93.6914 89.7994 93.734C89.7994 93.7767 89.7728 93.8194 89.7194 93.862L88.9994 94.374C88.9034 94.4487 88.8288 94.4327 88.7754 94.326L87.9914 92.966L87.1914 94.342C87.1594 94.3847 87.1221 94.4167 87.0794 94.438C87.0474 94.4487 87.0101 94.4327 86.9674 94.39ZM93.5768 94.39L92.8568 93.846C92.8141 93.814 92.7928 93.7767 92.7928 93.734C92.7928 93.6807 92.8088 93.638 92.8408 93.606L93.8968 92.438L92.3288 92.102C92.2648 92.0914 92.2275 92.0647 92.2168 92.022C92.2061 91.9794 92.2115 91.9367 92.2328 91.894L92.5048 91.062C92.5261 91.0087 92.5581 90.9767 92.6008 90.966C92.6435 90.9447 92.6915 90.9447 92.7448 90.966L94.1688 91.606L94.0248 90.006C94.0141 89.942 94.0248 89.8994 94.0568 89.878C94.0888 89.846 94.1261 89.83 94.1688 89.83H95.0328C95.0755 89.83 95.1128 89.846 95.1448 89.878C95.1875 89.8994 95.2035 89.942 95.1928 90.006L95.0488 91.622L96.4728 90.966C96.5261 90.9447 96.5741 90.9447 96.6168 90.966C96.6701 90.9767 96.7021 91.0087 96.7128 91.062L97.0008 91.894C97.0221 91.958 97.0221 92.006 97.0008 92.038C96.9795 92.07 96.9421 92.0914 96.8888 92.102L95.3048 92.454L96.3608 93.606C96.4035 93.6487 96.4195 93.6914 96.4088 93.734C96.4088 93.7767 96.3821 93.8194 96.3288 93.862L95.6088 94.374C95.5128 94.4487 95.4381 94.4327 95.3848 94.326L94.6008 92.966L93.8008 94.342C93.7688 94.3847 93.7315 94.4167 93.6888 94.438C93.6568 94.4487 93.6195 94.4327 93.5768 94.39Z" fill="#5F43DA"/>
</svg>
