<?xml version="1.0" encoding="iso-8859-1"?>
<!-- Uploaded to: SVG Repo, www.svgrepo.com, Generator: SVG Repo Mixer Tools -->
<svg height="800px" width="800px" version="1.1" id="Layer_1" xmlns="http://www.w3.org/2000/svg" xmlns:xlink="http://www.w3.org/1999/xlink" 
	 viewBox="0 0 496.158 496.158" xml:space="preserve">
<path style="fill:#D61E1E;" d="M248.082,0.003C111.07,0.003,0,111.063,0,248.085c0,137.001,111.07,248.07,248.082,248.07
	c137.006,0,248.076-111.069,248.076-248.07C496.158,111.062,385.088,0.003,248.082,0.003z"/>
<path style="fill:#F4EDED;" d="M248.082,39.002C132.609,39.002,39,132.602,39,248.084c0,115.463,93.609,209.072,209.082,209.072
	c115.467,0,209.076-93.609,209.076-209.072C457.158,132.602,363.549,39.002,248.082,39.002z"/>
<g>
	<path style="fill:#5B5147;" d="M124.118,275.871c-8.481,0-15.385,8.9-15.385,19.842c0,10.943,6.903,19.843,15.385,19.843
		s15.385-8.9,15.385-19.843C139.503,284.771,132.6,275.871,124.118,275.871z M124.118,308.868c-4.714,0-8.694-6.024-8.694-13.155
		c0-7.13,3.98-13.154,8.694-13.154c4.714,0,8.696,6.024,8.696,13.154C132.814,302.844,128.832,308.868,124.118,308.868z"/>
	<path style="fill:#5B5147;" d="M156,295.936c0.592-3.539,0.891-7.329,0.891-11.371v-38.126h12.042v-8.917h-3.347
		c-0.877,0-2.535-3.092-3.137-6.416c-0.768-11.64-8.689-22.061-9.76-23.423c-6.183-9.295-15.814-15.248-27.865-17.217
		c-8.639-1.412-15.596-0.309-16.394-0.171c-20.549,2.988-29.948,14.302-34.21,23.271c-4.418,9.294-4.311,17.903-4.282,18.88v10.829
		c-2.089,0.532-3.894,1.587-5.317,3.125c-3.834,4.14-3.674,10.305-3.599,11.521v14.192c0,8.027,7.407,11.768,13.376,13.073v13.87
		H45.271c0.563,2.244,1.154,4.476,1.788,6.691h34.028v-23.413l-0.01-3.028l-3.012-0.299c-0.104-0.011-10.356-1.19-10.356-6.894
		V257.81l-0.01-0.256c-0.085-1.111,0.066-4.708,1.829-6.609c0.863-0.933,2.092-1.384,3.754-1.384h3.344v-17.169l-0.002-0.125
		c-0.043-1.244-0.672-30.518,32.813-35.359l0.105-0.017c0.066-0.011,6.512-1.119,14.408,0.21
		c10.258,1.725,18.077,6.567,23.237,14.39l0.19,0.263c0.081,0.096,7.806,9.763,8.405,19.943l0.039,0.353
		c0.118,0.708,0.825,4.528,2.788,7.701H93.35v6.688h56.853v38.126c0,13.728-3.73,24.001-11.083,30.538
		c-11.052,9.822-26.933,8.075-27.091,8.057l-0.805,6.64c0.208,0.027,1.692,0.196,4.014,0.196c6.246,0,18.539-1.233,28.27-9.845
		c5.094-4.509,8.738-10.375,10.928-17.527h48.607v-6.688L156,295.936L156,295.936z"/>
	<path style="fill:#5B5147;" d="M193.327,348.151c-21.769-3.904-29.427,3.435-31.086,5.47l-55.05,48.932
		c1.658,1.514,3.346,2.996,5.054,4.457l54.673-48.6l0.275-0.169l0.238-0.398c0.469-0.535,6.162-6.447,24.764-3.1l42.918,6.262
		l0.965-6.618L193.327,348.151z"/>
</g>
<path style="fill:#D61E1E;" d="M85.85,60.394c-9.086,7.86-17.596,16.37-25.456,25.456l349.914,349.914
	c9.086-7.861,17.596-16.37,25.456-25.456L85.85,60.394z"/>
<path style="fill:#5B5147;" d="M402.312,186.146c-10.988-8.083-18.17,0.867-18.17,0.867l-24.543,58.613
	c-7.219,3.753-4.909-4.909-4.909-4.909l13.86-103.366c0.288-10.395-14.148-12.415-14.148-12.415
	c-14.436-1.445-16.168,13.281-16.168,13.281l-10.973,84.311c-0.289,8.662-4.043,8.083-4.043,8.083c-6.352,0-4.619-8.662-4.619-8.662
	l8.373-107.696c0-12.127-15.881-12.417-15.881-12.417c-15.59,0.577-15.303,15.591-15.303,15.591l-2.021,28.874l-5.195,68.718
	c0,3.464-2.887,4.909-2.887,4.909c-7.797,0.866-6.354-5.488-6.354-5.488l2.888-79.11c0-14.726-15.593-13.859-15.593-13.859
	c-14.435,0.866-13.859,14.724-13.859,14.724l-2.887,41.577l-7.217,108.561c-1.733,6.352-6.93,0.291-6.93,0.291
	c-6.352-10.107-25.408-32.339-25.408-32.339c-16.168-17.901-32.915-4.62-32.915-4.62c-10.104,5.775-0.577,15.591-0.577,15.591
	c13.281,11.55,50.213,84.188,50.213,84.188c38.087,61.088,98.77,27.841,98.77,27.841c23.102-10.683,34.359-42.155,34.359-42.155
	c2.599-9.817,13.57-51.106,13.57-51.106l30.896-82.864C408.973,191.056,402.312,186.146,402.312,186.146z"/>
</svg>